<svg xmlns="http://www.w3.org/2000/svg" viewBox="0 0 52 52"><path d="M9.643 30.617c.948-.288 1.596.687 1.776 1.578.08.4.113 1.168-.157 1.512-.254.324-1.034.24-1.517.272-.22.015-.645.126-.85.056-.363-.123-.093.014-.324-.305-.271-.373-.408-.87-.455-1.321-.025-.24.005-.462.013-.7.014-.431-.26.197-.004-.036.1-.091.772-.79.768-.79 1.587-.218.911-2.627-.665-2.41-.64.087-.891.412-1.302.858-.306.333-.713.568-.95.962-.501.827-.44 2.05-.254 2.958.217 1.062.788 2.21 1.663 2.874.97.738 2.496.364 3.634.27 1.268-.104 2.035-.557 2.544-1.759a5.043 5.043 0 00.219-3.28c-.276-1.01-.907-1.906-1.67-2.614-.922-.855-1.972-.888-3.133-.535-1.535.466-.88 2.88.664 2.41zM41.504 30.84c.826-.385 1.522-1.055 2.337-.378.577.48 1.009 2.171.57 2.778-.372.514-2.198.875-2.611.268-.161-.235-.506-2.053-.439-2.137.988-1.249-.77-3.03-1.768-1.768-.658.831-.79 1.634-.615 2.675.17 1.004.319 2.235.98 3.047 1.363 1.677 4.483 1.073 6.068.018.911-.607 1.077-1.637.993-2.656-.095-1.16-.138-2.543-.892-3.49-.582-.728-1.531-1.315-2.437-1.536-1.184-.288-2.417.54-3.448 1.02-1.457.678-.19 2.833 1.262 2.158zM24.346 3.382c1.27-.337 3.612-1.077 4.507.386.411.671.226 1.813.223 2.567l-.005 1.086c.361.336.265.463-.288.38-.464.202-1.06.23-1.551.428-.866.348-1.5.894-2.451.313-1.058-.647-2.612-4.146-.888-4.821 1.482-.58.837-2.999-.664-2.41-2.894 1.132-3.105 5.107-1.505 7.435.76 1.107 1.725 2.263 3.107 2.545 1.574.32 2.89-.75 4.369-1.033 1.324-.253 2.21-.642 2.347-2.128.138-1.496.277-3.502-.22-4.945C30.205-.064 26.317.274 23.68.971c-1.553.411-.894 2.823.665 2.41zM37.27 24.915c.131-2.39 1.032-7.656-.896-9.594-2.07-2.079-7.202-1.596-9.79-1.652-3.142-.068-7.242-1.104-9.934 1.069-2.296 1.853-1.874 5.004-1.757 7.634.09 2.008-.602 5.236 1.234 6.608 1.942 1.451 5.915 1.027 8.111.714 2.74-.39 4.992-.176 7.705.126 1.12.124 2.26.333 3.34-.113 2.713-1.118 2.5-4.006 1.773-6.36-.473-1.533-2.887-.879-2.41.664.307.996.001 3.092-1.186 3.512-.536.19-2.732-.539-3.579-.622a20.316 20.316 0 00-4.54.076c-2.078.256-4.456.98-6.529.174-1.365-.53-.876-.09-1.265-1.345-.31-1-.107-2.4-.154-3.434-.118-2.641-.18-5.433 2.823-6.347 1.86-.566 4.428.102 6.368.144 1.806.039 5.275-.413 6.817.578 2.285 1.469 1.493 5.911 1.368 8.168-.088 1.608 2.412 1.603 2.5 0zM51.566 49.909c.224-2.719.121-5.584-.387-8.273-.27-1.424-.722-2.336-2.09-2.931-3.475-1.514-10.272-1.393-13.35 1.046-2.613 2.07-2.715 8.078-.893 10.611 1.12 1.557 3.192 1.057 4.912 1.04 3.242-.03 6.484-.03 9.726-.009 1.61.01 1.611-2.49 0-2.5-3.051-.02-6.103-.02-9.154.004-1.714.015-3.358.24-4-1.584-.6-1.705.002-4.713 1.443-5.646 2.478-1.603 6.924-1.853 9.618-.801 1.707.667 1.498 2.258 1.646 3.936a29.79 29.79 0 01.029 5.107c-.132 1.603 2.369 1.595 2.5 0zM18.62 47.737c.77-3.934-.392-9.19-4.938-9.702C9.397 37.553 2.01 36.955.544 42.32c-.612 2.241.133 4.587 1.086 6.624.898 1.919 1.908 2.42 4.05 2.274 1.676-.114 3.334-.426 5.014-.494 1.715-.07 3.45.622 5.093.52 2.166-.134 2.26-1.346 2.743-3.166.414-1.557-1.997-2.22-2.41-.665-.375 1.41-.288 1.115-1.795.993-1.23-.1-2.39-.232-3.63-.182-3.13.126-6.357 1.815-7.485-2.066-1.623-5.579 3.416-5.829 7.273-5.73 1.745.046 3.907-.409 4.994 1.353.746 1.21.965 4.109.733 5.292-.307 1.571 2.102 2.244 2.41.664z"/></svg>