<svg id="Capa_1" enable-background="new 0 0 512 512" height="512" viewBox="0 0 512 512" width="512" xmlns="http://www.w3.org/2000/svg"><g><path d="m484.553 228.553h-14.647c-5.959-47.2-27.245-90.843-61.43-125.028s-77.829-55.471-125.028-61.43v-14.648c-.001-15.159-12.289-27.447-27.448-27.447s-27.447 12.288-27.447 27.447v14.647c-47.199 5.959-90.843 27.245-125.028 61.43s-55.471 77.828-61.43 125.028h-14.648c-15.159.001-27.447 12.289-27.447 27.448 0 15.158 12.288 27.447 27.447 27.447h14.647c5.959 47.199 27.245 90.843 61.43 125.028s77.829 55.471 125.028 61.43v14.647c.001 15.159 12.289 27.448 27.448 27.448s27.447-12.289 27.447-27.447v-14.647c47.199-5.959 90.843-27.245 125.028-61.43s55.471-77.829 61.43-125.028h14.647c15.16-.001 27.448-12.29 27.448-27.448 0-15.159-12.288-27.447-27.447-27.447zm-201.106 202.146v-24.265c0-15.159-12.288-27.448-27.447-27.448s-27.447 12.289-27.447 27.448v24.265c-75.57-11.827-135.425-71.682-147.252-147.252h24.265c15.159 0 27.447-12.289 27.447-27.447 0-15.159-12.289-27.447-27.447-27.447h-24.265c11.827-75.57 71.682-135.425 147.252-147.252v24.265c0 15.159 12.288 27.447 27.447 27.447s27.447-12.288 27.447-27.447v-24.265c75.57 11.827 135.425 71.682 147.252 147.252h-24.265c-15.159 0-27.447 12.288-27.447 27.447 0 15.158 12.289 27.447 27.447 27.447h24.265c-11.827 75.57-71.682 135.425-147.252 147.252z" fill="#365e7d"/><g fill="#2b4d66"><path d="m430.699 283.447c-10.764 74.187-71.735 135.653-147.252 147.252 83.671 6.471 155.74-64.948 167.838-147.252z"/><path d="m228.553 81.301v24.265c0 15.159 12.288 27.447 27.447 27.447 3.641 0 7.113-.715 10.293-2.003-10.057-4.072-17.154-13.927-17.154-25.445v-24.264z"/><path d="m427.02 228.553h-20.585c-15.159 0-27.447 12.288-27.447 27.447 0 15.158 12.289 27.447 27.447 27.447h20.585c-15.159 0-27.447-12.289-27.447-27.447 0-15.159 12.288-27.447 27.447-27.447z"/><path d="m249.138 484.553v-14.647c-47.199-5.959-90.843-27.245-125.028-61.43s-55.471-77.829-61.43-125.028h-14.647c-15.159 0-27.447-12.289-27.447-27.447 0-15.159 12.288-27.447 27.447-27.447h14.647c5.959-47.2 27.245-90.843 61.43-125.028s77.829-55.471 125.028-61.43v-14.649c0-11.518 7.097-21.372 17.154-25.445-3.179-1.287-6.651-2.002-10.292-2.002-15.159 0-27.447 12.288-27.447 27.447v14.647c-47.199 5.959-90.843 27.245-125.028 61.43s-55.471 77.828-61.43 125.028h-14.648c-15.159.001-27.447 12.289-27.447 27.448 0 15.158 12.288 27.447 27.447 27.447h14.647c5.959 47.199 27.245 90.843 61.43 125.028s77.829 55.471 125.028 61.43v14.647c.001 15.159 12.289 27.448 27.448 27.448 3.641 0 7.113-.715 10.293-2.003-10.057-4.072-17.155-13.927-17.155-25.444z"/><path d="m249.138 406.435c0-11.518 7.097-21.372 17.154-25.445-3.179-1.288-6.652-2.003-10.293-2.003-15.159 0-27.447 12.289-27.447 27.448v24.265h20.585v-24.265z"/><path d="m304.033 81.301c-5.131-.399-20.585 0-20.585 0 74.352 11.237 136.488 73.067 147.252 147.252h20.586c-11.828-75.571-70.994-141.321-147.253-147.252z"/></g><g><path d="m247.968 339.87c-9.281 0-18.096-4.282-23.832-11.681l-50.43-65.05c-10.205-13.164-7.807-32.109 5.357-42.314 13.165-10.206 32.11-7.807 42.315 5.357l22.638 29.202 44.177-78.225c8.192-14.504 26.587-19.621 41.093-11.43 14.504 8.191 19.621 26.589 11.43 41.092l-66.483 117.72c-4.965 8.792-14.001 14.516-24.071 15.249-.733.053-1.466.08-2.194.08z" fill="#b3e59f"/><g fill="#95d6a4"><path d="m339.948 175.872c-.422-.282-.865-.543-1.307-.794-14.507-8.193-32.904-3.076-41.098 11.431l-44.174 78.224-9.35-9.35 44.174-78.224c8.193-14.507 26.591-19.624 41.098-11.431 4.504 2.544 8.093 6.062 10.657 10.144z"/><path d="m269.584 330.737c-5.077 5.238-11.963 8.515-19.423 9.058-.734.05-1.468.08-2.192.08-9.289 0-18.096-4.283-23.836-11.682l-50.427-65.055c-10.204-13.16-7.811-32.1 5.358-42.314 3.89-3.026 8.304-4.936 12.838-5.791-10.335 10.596-11.541 27.465-2.212 39.499l50.427 65.055c5.74 7.399 14.557 11.682 23.836 11.682.724 0 1.458-.03 2.192-.08 1.167-.08 2.313-.231 3.439-.452z"/></g></g></g></svg>