<svg xmlns="http://www.w3.org/2000/svg" data-name="Layer 1" viewBox="0 0 32 32"><polygon fill="#ed456a" points="20.5 .55 28.45 3.5 20.5 6.45 20.5 .55"/><path fill="#57565d" d="M20.5,32c-.276,0-.5-.394-.5-.881V1.172c0-.487.224-.881.5-.881s.5.394.5.881V31.119C21,31.606,20.776,32,20.5,32Z"/><path fill="#416fb3" d="M13.12,30.6a1.015,1.015,0,0,1-1,.9H8.03a1,1,0,0,1-1-1v-9h6V22Z"/><path fill="#fbde53" d="M21.5,13A1.5,1.5,0,0,1,20,14.5H14.89a1,1,0,0,0-.99.86l-.8,5.65-.07.49h-6v2h-1a2,2,0,0,1-2-2v-6a4,4,0,0,1,4-4H20A1.5,1.5,0,0,1,21.5,13Z"/><path fill="#fcc37a" d="M8.525,10v2a1.5,1.5,0,0,0,1.5,1.5h0a1.5,1.5,0,0,0,1.5-1.5V10Z"/><path fill="#ffd9aa" d="M13.53,7.5a.969.969,0,0,1-.01.17,3.494,3.494,0,0,1-6.98,0,.975.975,0,0,1-.01-.17,3.5,3.5,0,0,1,7,0Z"/><path fill="#57565c" d="M13.53,7.5a.969.969,0,0,1-.01.17l-.49-.17-1.85-.74a1.972,1.972,0,0,0-1.29-.07L7.03,7.5l-.49.17a.975.975,0,0,1-.01-.17,3.5,3.5,0,0,1,7,0Z"/><path fill="#ffd9aa" d="M21.5 13A1.5 1.5 0 0 1 20 14.5h-.97v-3H20A1.5 1.5 0 0 1 21.5 13zM7.03 20.5v3h-1a2 2 0 0 1-2-2v-1z"/><path fill="#f7c229" d="M8.03 18.5V21h-1V18.5a.5.5 0 0 1 1 0zM13.784 16.345l-.7 4.831-.99-.143.7-4.831c.078-.541.358-.935.635-.894S13.862 15.8 13.784 16.345z"/><rect width="1" height="3" x="18.53" y="11.5" fill="#f7c229"/><rect width="3" height="1" x="4.03" y="20" fill="#f7c229"/><path fill="#23579f" d="M9.53 31.5v-7a.5.5 0 0 1 .5-.5.5.5 0 0 1 .5.5v7zM7.03 22h6v-.5l.07-.49a.17.17 0 0 0-.07-.01h-6z"/></svg>