<svg xmlns="http://www.w3.org/2000/svg" fill-rule="evenodd" stroke-linejoin="round" stroke-miterlimit="2" clip-rule="evenodd" viewBox="0 0 128 129"><g transform="translate(-2136 .865)"><rect width="128" height="128" x="2136" fill="none"/><path d="M63.3,23.594C41.522,23.594 23.842,41.275 23.842,63.053C23.842,84.83 41.522,102.511 63.3,102.511C85.078,102.511 102.758,84.83 102.758,63.053C102.758,41.275 85.078,23.594 63.3,23.594ZM63.3,31.757C80.573,31.757 94.596,45.78 94.596,63.053C94.596,80.325 80.573,94.349 63.3,94.349C46.027,94.349 32.004,80.325 32.004,63.053C32.004,45.78 46.027,31.757 63.3,31.757Z" transform="rotate(-35 1195.574 -3399.012) scale(.61256)"/><path d="M102.271,46.505L102.271,58.481C102.271,62.18 105.274,65.183 108.973,65.183C112.672,65.183 115.675,62.18 115.675,58.481L115.675,46.505C115.675,42.806 112.672,39.803 108.973,39.803C105.274,39.803 102.271,42.806 102.271,46.505Z" transform="rotate(-35 1266.205 -3418.035) scale(.37302)"/><path d="M126.025,69.77C126.025,60.143 120.734,51.49 112.675,47.94L112.675,47.94C110.509,46.986 108.096,46.986 105.93,47.94C105.93,47.94 105.93,47.94 105.93,47.94C97.871,51.49 92.58,60.143 92.58,69.77C92.58,77.605 92.58,88.016 92.58,95.94C92.58,100.864 94.342,105.587 97.477,109.069C100.612,112.55 104.864,114.506 109.298,114.506C109.301,114.506 109.304,114.506 109.306,114.506C113.74,114.506 117.993,112.55 121.128,109.069C124.263,105.587 126.025,100.864 126.025,95.94L126.025,69.77ZM113.666,69.77C113.666,66.262 111.976,63.066 109.302,61.337C106.629,63.066 104.938,66.262 104.938,69.77C104.938,77.605 104.938,88.016 104.938,95.94C104.938,97.225 105.398,98.456 106.215,99.364C107.033,100.272 108.142,100.782 109.298,100.782C109.301,100.782 109.304,100.782 109.307,100.782C110.463,100.782 111.572,100.272 112.389,99.364C113.207,98.456 113.666,97.225 113.666,95.94L113.666,69.77Z" transform="matrix(.33142 -.23206 .20897 .29844 2188.16 112.464)"/><path d="M372.129,399.305C372.098,398.62 371.838,389.551 379.407,380.602C383.578,375.671 390.401,370.406 402.146,367.601C417.694,363.887 430.365,368.078 438.616,375.21C452.6,387.299 455.252,408.245 439.489,423.266C435.171,427.381 429.542,429.772 423.577,431.615C421.586,432.23 419.562,432.793 417.653,433.533C416.574,433.953 415.432,434.262 414.719,435.207C413.658,436.614 413.664,438.774 413.831,441.928C414.197,448.85 408.874,454.768 401.952,455.134C395.029,455.5 389.112,450.177 388.746,443.254C388.23,433.5 390.311,426.888 393.283,422.096C396.651,416.665 401.375,413.201 406.867,410.812C409.814,409.53 413.009,408.587 416.162,407.613C418.323,406.946 420.595,406.572 422.159,405.081C425.723,401.685 425.349,396.947 422.187,394.214C418.977,391.438 413.963,390.908 407.85,392.062C400.802,393.392 398.408,397.599 397.525,400.128C394.751,408.073 391.339,411.519 384.87,411.614C377.961,411.715 372.265,406.206 372.129,399.305ZM392.196,398.267C390.461,403.235 388.832,405.91 384.787,405.969C380.971,406.025 377.828,402.972 377.772,399.156L377.769,399.048C377.769,399.048 377.473,391.632 383.718,384.248C387.328,379.979 393.29,375.52 403.457,373.092C416.858,369.891 427.813,373.334 434.924,379.481C446.476,389.467 448.616,406.771 435.595,419.18C431.897,422.704 427.02,424.643 421.91,426.221C419.793,426.875 417.641,427.482 415.611,428.271C413.548,429.071 411.575,430.001 410.213,431.807C408.551,434.009 407.933,437.288 408.194,442.226C408.395,446.037 405.465,449.295 401.653,449.496C397.842,449.698 394.585,446.767 394.383,442.956C393.948,434.724 395.573,429.116 398.081,425.071C400.807,420.675 404.674,417.923 409.119,415.989C411.879,414.788 414.876,413.919 417.828,413.007C420.842,412.076 423.873,411.246 426.054,409.168C432.359,403.159 431.473,394.779 425.879,389.943C421.587,386.233 414.975,384.972 406.803,386.515C396.717,388.418 393.459,394.648 392.196,398.267Z" transform="translate(1817.55 -320.531) scale(.88569)"/><path d="M386.188,457.885L386.188,460.024C386.188,466.432 391.39,471.633 397.797,471.633C404.204,471.633 409.406,466.432 409.406,460.024L409.406,457.885C409.406,451.477 404.204,446.276 397.797,446.276C391.39,446.276 386.188,451.477 386.188,457.885ZM391.406,457.885C391.406,454.357 394.27,451.493 397.797,451.493C401.324,451.493 404.188,454.357 404.188,457.885C404.188,457.885 404.188,460.024 404.188,460.024C404.188,463.552 401.324,466.416 397.797,466.416C394.27,466.416 391.406,463.552 391.406,460.024L391.406,457.885Z" transform="translate(1791.92 -341.302) scale(.95827)"/></g></svg>