<svg xmlns="http://www.w3.org/2000/svg" data-name="Layer 1" viewBox="0 0 64 64"><path d="M11.63623 29.0752a11.90479 11.90479 0 0 0-6.2583 21.05957A3.19423 3.19423 0 0 1 6.5 52.63379v4.79492A5.60785 5.60785 0 0 0 12.13135 63h1.7373A5.60785 5.60785 0 0 0 19.5 57.42871V52.63379a3.30435 3.30435 0 0 1 1.188-2.55274 11.874 11.874 0 0 0 .34326-18.01464A12.10145 12.10145 0 0 0 11.63623 29.0752zM8.5 57.42871V57h9v.42871A3.47944 3.47944 0 0 1 17.44122 58H8.55878A3.47944 3.47944 0 0 1 8.5 57.42871zM12.13135 61a3.64425 3.64425 0 0 1-2.50824-1h6.75378a3.64425 3.64425 0 0 1-2.50824 1zm7.56543-27.44434A9.87395 9.87395 0 0 1 19.41016 48.542 5.30034 5.30034 0 0 0 17.5 52.63379V55H14V49a1.00172 1.00172 0 0 0-.37549-.78125l-4.334-3.4668A.77129.77129 0 0 1 9 44.14844v-.377A.77217.77217 0 0 1 9.77148 43h.28028a.771.771 0 0 1 .64209.34375 2.77145 2.77145 0 0 0 4.6123 0A.771.771 0 0 1 15.94824 43h.28028A.77217.77217 0 0 1 17 43.77148v.49512a.76366.76366 0 0 1-.22607.54492L14.293 47.293 15.707 48.707l2.48047-2.48047A2.75269 2.75269 0 0 0 19 44.2666v-.49512A2.77446 2.77446 0 0 0 16.22852 41h-.28028a2.76652 2.76652 0 0 0-2.30615 1.23438.77157.77157 0 0 1-1.28418 0A2.76652 2.76652 0 0 0 10.05176 41H9.77148A2.77446 2.77446 0 0 0 7 43.77148v.377a2.76155 2.76155 0 0 0 1.04053 2.165L12 49.48047V55H8.5V52.63379a5.18094 5.18094 0 0 0-1.85547-4.0459A9.95575 9.95575 0 1 1 19.69678 33.55566zM42 22H39a4 4 0 0 0-8 0H28a.99974.99974 0 0 0-1 1V37a.99974.99974 0 0 0 1 1h4a.99974.99974 0 0 0 1-1V36a2 2 0 0 1 4 0v1a.99974.99974 0 0 0 1 1h4a.99974.99974 0 0 0 1-1V34a4 4 0 0 0 0-8V23A.99974.99974 0 0 0 42 22zm3 8a2.00229 2.00229 0 0 1-2 2H42a.99974.99974 0 0 0-1 1v3H39a4 4 0 0 0-8 0H29V24h3a.99974.99974 0 0 0 1-1V22a2 2 0 0 1 4 0v1a.99974.99974 0 0 0 1 1h3v3a.99974.99974 0 0 0 1 1h1A2.00229 2.00229 0 0 1 45 30z"/><path d="M62,22.18555H60.10986a.904.904,0,0,1-.87841-.64649,23.98365,23.98365,0,0,0-2.23633-5.39062.90737.90737,0,0,1,.16162-1.082l1.33984-1.33985a.99963.99963,0,0,0,0-1.41406L51.687,5.50391a1.02932,1.02932,0,0,0-1.41406,0L48.93359,6.84375a.90633.90633,0,0,1-1.08154.16113,24.043,24.043,0,0,0-5.3916-2.2373.90289.90289,0,0,1-.64551-.87793V2a.99974.99974,0,0,0-1-1H31.18506a.99974.99974,0,0,0-1,1V3.88965a.90258.90258,0,0,1-.64649.87793A24.05452,24.05452,0,0,0,24.148,7.00488a.9092.9092,0,0,1-1.08154-.16113L21.727,5.50391a.99963.99963,0,0,0-1.41406,0L13.50342,12.3125a.99963.99963,0,0,0,0,1.41406l1.33935,1.33985a.90761.90761,0,0,1,.1626,1.082,23.96256,23.96256,0,0,0-2.23682,5.39062.904.904,0,0,1-.87841.64649H10a.99973.99973,0,0,0-1,1V28h2V24.18555h.89014a2.90936,2.90936,0,0,0,2.80517-2.11133,21.99458,21.99458,0,0,1,2.05078-4.94141,2.91219,2.91219,0,0,0-.48877-3.48047l-.63281-.63281L21.02,7.625l.63232.63281a2.90864,2.90864,0,0,0,3.481.48731,22.02351,22.02351,0,0,1,4.94043-2.04981,2.90864,2.90864,0,0,0,2.11133-2.80566V3h7.62988v.88965a2.90892,2.90892,0,0,0,2.11035,2.80566A22.012,22.012,0,0,1,46.8667,8.74512a2.91129,2.91129,0,0,0,3.481-.48731L50.98,7.625l5.39551,5.39453-.6333.63281a2.912,2.912,0,0,0-.4878,3.48047,22.01529,22.01529,0,0,1,2.0503,4.94141,2.90936,2.90936,0,0,0,2.80517,2.11133H61v7.6289h-.89014a2.90936,2.90936,0,0,0-2.80517,2.11133,21.99458,21.99458,0,0,1-2.05078,4.94141,2.91219,2.91219,0,0,0,.48877,3.48047l.63281.63281L50.98,48.375l-.63232-.63281a2.91137,2.91137,0,0,0-3.481-.48731,22.02351,22.02351,0,0,1-4.94043,2.04981,2.90864,2.90864,0,0,0-2.11133,2.80566V53H32.18506v-.88965a2.90892,2.90892,0,0,0-2.11035-2.80566,22.012,22.012,0,0,1-4.94141-2.04981L24.148,48.99512a24.043,24.043,0,0,0,5.3916,2.2373.90289.90289,0,0,1,.64551.87793V54a.99974.99974,0,0,0,1,1h9.62988a.99974.99974,0,0,0,1-1V52.11035a.90258.90258,0,0,1,.64649-.87793,24.05452,24.05452,0,0,0,5.39062-2.2373.90682.90682,0,0,1,1.08154.16113L50.273,50.49609a.99963.99963,0,0,0,1.41406,0l6.80957-6.80859a.99963.99963,0,0,0,0-1.41406l-1.33935-1.33985a.90761.90761,0,0,1-.1626-1.082,23.96256,23.96256,0,0,0,2.23682-5.39062.904.904,0,0,1,.87841-.64649H62a.99973.99973,0,0,0,1-1v-9.6289A.99973.99973,0,0,0,62,22.18555Z"/><path d="M36,47A19,19,0,1,0,17,28h2a16.99024,16.99024,0,1,1,8.5,14.72656L26.499,44.457A18.99326,18.99326,0,0,0,36,47Z"/></svg>