<svg xmlns="http://www.w3.org/2000/svg" data-name="Layer 1" viewBox="0 0 512 512"><circle cx="154.378" cy="117.836" r="12.204"/><path d="M89,67.825V50.805A55.539,55.539,0,0,0,73.87,86.949,39.825,39.825,0,0,0,96.333,79.92,13.861,13.861,0,0,1,89,67.825Z"/><circle cx="102.188" cy="117.836" r="12.204"/><path d="M183 130.285V73.353c-11 1.587-42.594 6.1-65.965 7.673a78.21 78.21 0 0 1-13.1 10.671 26.251 26.251 0 0 1 22.732 16.81 17.736 17.736 0 0 1 3.226 0 26.2 26.2 0 1 1-1.306 13.949 3.6 3.6 0 0 0-.614 0A26.2 26.2 0 1 1 82.792 100.23a50.136 50.136 0 0 1-8.488.731c-.1 0-.3 0-.3-.006v29.33a55.779 55.779 0 0 0 16.023 39.04 53.085 53.085 0 0 0 76.793 0A55.938 55.938 0 0 0 183 130.285zM96 191.623v9.067a52.666 52.666 0 0 0 64-.01v-8.972a67.352 67.352 0 0 1-64-.085zM200.379 35.024l-35.316 5.551a66.5 66.5 0 0 1-27.832-1.5l-20.214-5.457a11.255 11.255 0 0 0-2.915-.386A11.145 11.145 0 0 0 103 44.2V67.572c24-.054 74.5-7.627 80.405-8.52C193.029 55.764 198.552 45.645 200.379 35.024z"/><path d="M194.146 211H169.5a67.007 67.007 0 0 1-82.623 0H62.421C46.473 211 33 224 33 239.947V288H223V239.947A28.918 28.918 0 0 0 194.146 211zM332.551 232.68c0-.127.008-.252.01-.378a59.218 59.218 0 0 0-20.109 42.867c8.032-.367 22.479-3.116 35.894-16.366A29.543 29.543 0 0 1 332.551 232.68zM362.072 248h83.761c-3.294-17-18.81-31-37.4-31H362.072a15.5 15.5 0 1 0 0 31zM371.282 381.806a57.6 57.6 0 0 0 41.532-17.837A60.342 60.342 0 0 0 430 321.59V262H364.15C345.927 285 324 288.735 312 289.157V321.59a60.656 60.656 0 0 0 17.5 42.379A58.157 58.157 0 0 0 371.282 381.806zM305.046 408A38.031 38.031 0 0 0 267 445.966V479h98V446.666L334 408zM401 389.326a70.965 70.965 0 0 1-29.819 6.48A73.811 73.811 0 0 1 344 390.477v8.012l27.781 34.655L401 398.4zM440.47 408H411.244L379 446.759V479H479V445.966C479 425 461.441 408 440.47 408zM416 48.285V32.219a6.707 6.707 0 0 0-10.468-5.854L372.555 48.034a7 7 0 0 0 .062 11.707l33.039 21.668a6.992 6.992 0 0 0 3.839 1.147 6.073 6.073 0 0 0 3.078-.841A6.779 6.779 0 0 0 416 75.556V62.527c35 7.468 56.534 39.237 56.534 66.552 0 20.1-11.319 41.46-29.028 54.43a7.032 7.032 0 0 0 8.38 11.3c21.514-15.758 34.887-40.942 34.887-65.725 0-18.133-7.646-37.166-20.553-52.219A84.4 84.4 0 0 0 416 48.285zM139.383 452.259l-33.039-21.668a6.56 6.56 0 0 0-6.917-.306A6.779 6.779 0 0 0 96 436.444v13.029c-35-7.468-56.534-39.237-56.534-66.552 0-20.095 11.319-41.46 29.028-54.43A7.028 7.028 0 0 0 60.129 317.2c-21.514 15.758-34.895 40.942-34.895 65.725 0 18.133 7.642 37.166 20.55 52.219A84.389 84.389 0 0 0 96 463.715v16.066a6.777 6.777 0 0 0 3.427 6.159 6.521 6.521 0 0 0 3.2.841 6.8 6.8 0 0 0 3.778-1.146l33.008-21.669a7 7 0 0 0-.031-11.707z"/></svg>