<svg xmlns="http://www.w3.org/2000/svg" viewBox="0 0 48 48"><path d="M43,7H5a3,3,0,0,0-3,3V38a3,3,0,0,0,3,3H43a3,3,0,0,0,3-3V10A3,3,0,0,0,43,7ZM5,9H43a1,1,0,0,1,1,1v5H4V10A1,1,0,0,1,5,9ZM43,39H5a1,1,0,0,1-1-1V17H44V38A1,1,0,0,1,43,39ZM9,13H6V11H9Zm5,0H11V11h3Zm28,0H33V11h9ZM21,22H19V20a1,1,0,0,0-1-1H12a1,1,0,0,0-1,1v2H9a3,3,0,0,0-3,3v3a3,3,0,0,0,2,2.82V34a3,3,0,0,0,3,3h8a3,3,0,0,0,3-3V30.82A3,3,0,0,0,24,28V25A3,3,0,0,0,21,22Zm-8-1h4v1H13Zm7,13a1,1,0,0,1-1,1H11a1,1,0,0,1-1-1V31H20Zm2-6a1,1,0,0,1-1,1H9a1,1,0,0,1-1-1V25a1,1,0,0,1,1-1H21a1,1,0,0,1,1,1Zm18-8h2v2H38v1h3a1,1,0,0,1,1,1v3a1,1,0,0,1-1,1H40v1H38V28H36V26h4V25H37a1,1,0,0,1-1-1V21a1,1,0,0,1,1-1h1V19h2Zm-6,1H26V19h8Zm0,4H26V23h8Zm0,4H26V27h8Zm-8,2H42v2H26Zm0,4H42v2H26Z" data-name="28 E Commerce, Bag, Shopping Bag"/></svg>