<?xml version="1.0" encoding="iso-8859-1"?>
<!-- Generator: Adobe Illustrator 19.0.0, SVG Export Plug-In . SVG Version: 6.00 Build 0)  -->
<svg version="1.1" id="Layer_1" xmlns="http://www.w3.org/2000/svg" xmlns:xlink="http://www.w3.org/1999/xlink" x="0px" y="0px"
	 viewBox="0 0 490.686 490.686" style="enable-background:new 0 0 490.686 490.686;" xml:space="preserve">
<g>
	<g>
		<path d="M410.828,143.208c-3.285-4.928-9.899-6.229-14.784-3.008c-4.907,3.243-6.251,9.877-3.008,14.784
			c22.016,33.237,33.643,71.872,33.643,111.701c0,111.744-90.923,202.667-202.667,202.667S21.345,378.43,21.345,266.686
			S112.268,64.019,224.012,64.019c39.829,0,78.464,11.648,111.701,33.643c4.885,3.221,11.499,1.92,14.784-3.008
			c3.243-4.907,1.877-11.541-3.008-14.784c-36.757-24.32-79.445-37.184-123.477-37.184c-123.52,0-224,100.48-224,224
			s100.48,224,224,224s224-100.48,224-224C448.012,222.654,435.169,179.944,410.828,143.208z"/>
	</g>
</g>
<g>
	<g>
		<path d="M224.012,213.352c-29.419,0-53.333,23.936-53.333,53.333s23.915,53.333,53.333,53.333
			c29.419,0,53.333-23.936,53.333-53.333S253.43,213.352,224.012,213.352z M224.012,298.686c-17.643,0-32-14.357-32-32
			c0-17.643,14.357-32,32-32c17.643,0,32,14.357,32,32C256.012,284.328,241.654,298.686,224.012,298.686z"/>
	</g>
</g>
<g>
	<g>
		<path d="M489.868,49.278c-1.643-3.989-5.547-6.592-9.856-6.592h-32v-32c0-4.309-2.603-8.192-6.592-9.856
			c-3.968-1.685-8.555-0.747-11.627,2.304L387.127,45.8c-1.984,2.005-3.115,4.715-3.115,7.552v38.251L216.46,259.155
			c-4.16,4.16-4.16,10.923,0,15.083c2.091,2.069,4.821,3.115,7.552,3.115c2.731,0,5.461-1.045,7.531-3.115l167.552-167.552h38.251
			c2.837,0,5.547-1.109,7.552-3.115l42.667-42.667C490.593,57.854,491.51,53.267,489.868,49.278z M432.929,85.352h-27.584V57.768
			l21.333-21.333v16.917c0,5.888,4.779,10.667,10.667,10.667h16.917L432.929,85.352z"/>
	</g>
</g>
<g>
	<g>
		<path d="M349.025,206.995c-2.56-5.355-8.981-7.573-14.229-5.013c-5.312,2.56-7.552,8.917-5.013,14.229
			c7.659,16.021,11.563,33.003,11.563,50.475c0,64.704-52.651,117.333-117.333,117.333S106.678,331.39,106.678,266.686
			s52.651-117.333,117.333-117.333c17.472,0,34.453,3.883,50.453,11.541c5.312,2.539,11.691,0.299,14.229-5.013
			c2.539-5.312,0.299-11.669-5.013-14.229c-18.901-9.045-38.976-13.632-59.669-13.632c-76.459,0-138.667,62.208-138.667,138.667
			s62.208,138.667,138.667,138.667s138.667-62.208,138.667-138.667C362.679,245.992,358.092,225.918,349.025,206.995z"/>
	</g>
</g>
<g>
</g>
<g>
</g>
<g>
</g>
<g>
</g>
<g>
</g>
<g>
</g>
<g>
</g>
<g>
</g>
<g>
</g>
<g>
</g>
<g>
</g>
<g>
</g>
<g>
</g>
<g>
</g>
<g>
</g>
</svg>
